<svg xmlns="http://www.w3.org/2000/svg" xmlns:xlink="http://www.w3.org/1999/xlink" width="52" zoomAndPan="magnify" viewBox="0 0 39 38.999999" height="52" preserveAspectRatio="xMidYMid meet" version="1.0"><defs><clipPath id="9365a13369"><path d="M 0 4.828125 L 39 4.828125 L 39 34.078125 L 0 34.078125 Z M 0 4.828125 " clip-rule="nonzero"/></clipPath></defs><g clip-path="url(#9365a13369)"><path fill="#de0075" d="M 11.421875 34.113281 C 9.886719 33.992188 8.90625 33.660156 8.308594 33.054688 C 7.773438 32.511719 7.707031 32.085938 7.945312 30.675781 C 8.085938 29.808594 8.21875 28.59375 8.304688 27.28125 C 8.367188 26.394531 8.460938 25.464844 8.507812 25.308594 C 8.5625 25.117188 8.679688 25.222656 8.875 25.640625 C 9.140625 26.207031 9.382812 26.960938 9.464844 27.488281 C 9.574219 28.152344 9.503906 29.5 9.300781 30.777344 C 9.113281 31.972656 9.117188 32.027344 9.460938 32.257812 C 9.730469 32.441406 10.40625 32.640625 11.011719 32.714844 C 11.683594 32.796875 13.90625 32.796875 15.398438 32.714844 C 17.289062 32.605469 19.148438 32.613281 19.867188 32.734375 C 20.917969 32.910156 22.433594 33.304688 22.4375 33.40625 C 22.441406 33.488281 22.109375 33.585938 21.417969 33.707031 C 20.613281 33.847656 19.695312 33.914062 17.546875 33.984375 C 16.578125 34.019531 15.359375 34.066406 14.84375 34.097656 C 13.980469 34.144531 11.941406 34.15625 11.421875 34.113281 Z M 31.269531 32.742188 C 31.167969 32.699219 30.894531 32.523438 30.664062 32.351562 C 30 31.867188 27.859375 30.890625 26.761719 30.574219 C 24.894531 30.035156 20.984375 29.855469 18.070312 30.171875 C 15.171875 30.492188 13.007812 30.746094 12.417969 30.84375 C 11.640625 30.96875 11.507812 30.976562 11.507812 30.882812 C 11.507812 30.796875 12.355469 30.238281 12.910156 29.960938 C 13.429688 29.699219 14.535156 29.328125 15.226562 29.183594 C 15.75 29.074219 17.535156 28.855469 18.816406 28.746094 C 19.839844 28.660156 22.9375 28.675781 24.105469 28.773438 C 26.351562 28.964844 27.5 29.28125 29.867188 30.355469 C 30.269531 30.539062 30.613281 30.675781 30.625 30.664062 C 30.640625 30.648438 30.613281 30.390625 30.5625 30.089844 C 30.367188 28.863281 30.417969 27.046875 30.683594 25.722656 C 30.734375 25.472656 30.761719 25.230469 30.742188 25.1875 C 30.71875 25.121094 30.621094 25.101562 30.332031 25.101562 C 29.484375 25.101562 27.4375 24.617188 26.292969 24.148438 C 25.425781 23.789062 23.316406 22.847656 22.5 22.449219 C 21.933594 22.175781 21.933594 22.175781 21.589844 22.230469 C 21.398438 22.257812 20.550781 22.28125 19.699219 22.277344 C 18.652344 22.273438 17.824219 22.300781 17.132812 22.363281 C 15.972656 22.46875 16.074219 22.457031 14.679688 22.707031 C 13.042969 23.003906 12.851562 23.050781 12.042969 23.371094 C 11.136719 23.730469 10.621094 23.871094 10 23.917969 C 9.324219 23.972656 9.316406 23.902344 9.9375 23.230469 C 10.246094 22.898438 11.03125 22.328125 11.382812 22.183594 C 11.480469 22.140625 11.5625 22.089844 11.5625 22.066406 C 11.5625 22.046875 11.433594 22.007812 11.28125 21.988281 C 10.789062 21.925781 10.171875 21.695312 9.644531 21.382812 C 8.886719 20.933594 8.226562 20.695312 7.125 20.46875 C 6.230469 20.285156 5.273438 20.34375 5.273438 20.582031 C 5.273438 20.722656 5.609375 20.992188 5.941406 21.117188 C 6.105469 21.179688 6.484375 21.28125 6.789062 21.347656 C 7.921875 21.589844 9.28125 22.089844 9.230469 22.242188 C 9.199219 22.339844 8.964844 22.390625 8.332031 22.441406 C 7.292969 22.53125 6.144531 22.355469 5.355469 21.992188 C 4.414062 21.554688 3.964844 20.777344 4.273438 20.105469 C 4.402344 19.824219 4.632812 19.625 5.035156 19.464844 C 5.320312 19.351562 5.441406 19.339844 6.15625 19.34375 C 7.019531 19.347656 7.472656 19.425781 8.554688 19.757812 C 9.316406 19.992188 9.832031 20.25 10.304688 20.628906 C 10.773438 21.003906 11.617188 21.859375 11.617188 21.957031 C 11.617188 22.035156 11.667969 22.027344 12.335938 21.820312 C 12.703125 21.710938 14.554688 21.339844 15.675781 21.15625 C 16.171875 21.074219 17.734375 20.957031 18.695312 20.925781 C 19.5 20.902344 19.78125 20.875 19.769531 20.828125 C 19.761719 20.789062 19.550781 20.578125 19.300781 20.359375 C 18.898438 20.003906 18.75 19.804688 18.886719 19.804688 C 18.910156 19.804688 19.710938 20.070312 20.667969 20.390625 C 22.523438 21.015625 22.921875 21.175781 25.328125 22.25 C 27.164062 23.070312 27.542969 23.207031 28.664062 23.464844 C 29.816406 23.730469 30.390625 23.800781 31.09375 23.757812 C 31.859375 23.710938 32.507812 23.5625 33.292969 23.246094 C 34.136719 22.910156 34.472656 22.738281 34.878906 22.433594 C 35.734375 21.789062 37.207031 19.546875 37.5 18.441406 C 37.652344 17.871094 37.664062 16.84375 37.527344 16.328125 C 37.253906 15.3125 36.597656 14.390625 35.769531 13.867188 C 35.34375 13.597656 35.628906 13.542969 36.324219 13.761719 C 37.5 14.132812 38.480469 15.226562 38.824219 16.542969 C 38.976562 17.117188 38.988281 18.027344 38.851562 18.617188 C 38.671875 19.398438 38.222656 20.316406 37.476562 21.433594 C 36.746094 22.53125 36.070312 23.277344 35.40625 23.726562 C 34.460938 24.359375 32.28125 25.101562 31.355469 25.101562 C 31.226562 25.101562 31.132812 25.132812 31.117188 25.179688 C 31.097656 25.222656 31.136719 25.550781 31.199219 25.910156 C 31.257812 26.269531 31.359375 26.898438 31.421875 27.308594 C 31.484375 27.71875 31.699219 28.894531 31.898438 29.921875 C 32.195312 31.4375 32.257812 31.847656 32.226562 32.085938 C 32.183594 32.425781 32.039062 32.640625 31.777344 32.75 C 31.550781 32.84375 31.5 32.84375 31.269531 32.742188 Z M 4.640625 25.371094 C 4.429688 25.347656 4.105469 25.277344 3.921875 25.210938 C 3.121094 24.921875 1.777344 23.808594 1.253906 23.003906 C 0.78125 22.273438 0.355469 21.050781 0.101562 19.695312 C 0.0273438 19.28125 0.0078125 18.871094 0.0078125 17.734375 C 0.0078125 16.183594 0.0546875 15.808594 0.394531 14.714844 C 0.570312 14.148438 1.132812 12.988281 1.546875 12.328125 C 2.746094 10.425781 4.945312 8.160156 6.734375 6.980469 C 8.195312 6.019531 9.90625 5.402344 11.949219 5.105469 C 13.921875 4.820312 15.46875 4.839844 16.382812 5.167969 C 17.710938 5.640625 18.378906 6.199219 19.324219 7.625 C 19.578125 8.011719 19.808594 8.328125 19.828125 8.328125 C 19.847656 8.324219 19.96875 8.105469 20.097656 7.839844 C 20.625 6.757812 21.386719 6.21875 22.992188 5.796875 C 24.71875 5.339844 26.320312 5.289062 27.949219 5.632812 C 28.671875 5.789062 30.160156 6.285156 30.789062 6.582031 C 32.308594 7.304688 33.578125 8.269531 34.261719 9.230469 C 34.84375 10.046875 35.230469 11.191406 35.230469 12.09375 C 35.230469 12.695312 35.042969 13.585938 34.722656 14.507812 C 34.511719 15.117188 34.390625 15.339844 34.316406 15.265625 C 34.203125 15.15625 34.054688 14.042969 33.964844 12.660156 C 33.839844 10.699219 33.210938 9.648438 31.480469 8.519531 C 30.78125 8.0625 30.210938 7.777344 29.402344 7.476562 C 27.988281 6.960938 27.019531 6.765625 25.851562 6.769531 C 24.871094 6.769531 24.183594 6.871094 22.953125 7.199219 C 21.835938 7.496094 21.382812 7.703125 20.816406 8.1875 C 20.375 8.5625 20.285156 8.691406 20.167969 9.085938 C 20.082031 9.371094 19.964844 9.390625 19.917969 9.128906 C 19.886719 8.96875 19.761719 8.832031 19.210938 8.34375 C 17.777344 7.070312 17.402344 6.820312 16.507812 6.53125 C 15.671875 6.261719 14.917969 6.191406 13.710938 6.28125 C 12.796875 6.347656 11.777344 6.484375 11.007812 6.644531 C 10.398438 6.773438 9.183594 7.195312 8.554688 7.5 C 7.070312 8.214844 5.386719 9.636719 3.859375 11.464844 C 2.96875 12.53125 2.285156 13.617188 1.855469 14.660156 C 0.832031 17.144531 1.316406 21.148438 2.863281 22.960938 C 3.296875 23.464844 3.953125 24.074219 4.253906 24.25 C 4.910156 24.636719 5.691406 24.738281 6.578125 24.554688 C 7.425781 24.378906 8.132812 24.417969 7.546875 24.609375 C 7.433594 24.644531 7.125 24.78125 6.863281 24.914062 C 5.992188 25.351562 5.445312 25.460938 4.640625 25.371094 Z M 15.195312 19.816406 C 15.058594 19.664062 14.78125 19.222656 14.578125 18.820312 C 13.804688 17.320312 12.777344 16.304688 11.746094 16.023438 C 11.355469 15.914062 11.195312 15.9375 10.996094 16.136719 C 10.703125 16.429688 10.765625 16.800781 11.207031 17.40625 C 12.089844 18.601562 12.242188 18.867188 12.042969 18.867188 C 12.007812 18.867188 11.777344 18.785156 11.535156 18.6875 C 10.738281 18.363281 10.222656 17.921875 9.949219 17.34375 C 9.445312 16.265625 10.082031 15.074219 11.242188 14.917969 C 11.378906 14.898438 11.632812 14.921875 11.84375 14.96875 C 12.898438 15.214844 13.867188 15.925781 14.746094 17.101562 C 15.21875 17.738281 15.40625 18.101562 15.511719 18.585938 C 15.609375 19.058594 15.613281 19.859375 15.515625 19.992188 C 15.449219 20.085938 15.425781 20.070312 15.195312 19.816406 Z M 15.195312 19.816406 " fill-opacity="1" fill-rule="nonzero"/></g></svg>