<svg xmlns="http://www.w3.org/2000/svg" xmlns:xlink="http://www.w3.org/1999/xlink" width="52" zoomAndPan="magnify" viewBox="0 0 39 38.999999" height="52" preserveAspectRatio="xMidYMid meet" version="1.0"><defs><clipPath id="bf03f23251"><path d="M 9.75 12.164062 L 29.25 12.164062 L 29.25 27 L 9.75 27 Z M 9.75 12.164062 " clip-rule="nonzero"/></clipPath></defs><g clip-path="url(#bf03f23251)"><path fill="#385170" d="M 15.460938 26.808594 C 14.695312 26.746094 14.203125 26.578125 13.90625 26.277344 C 13.636719 26.007812 13.605469 25.792969 13.722656 25.085938 C 13.792969 24.65625 13.859375 24.046875 13.902344 23.390625 C 13.933594 22.949219 13.980469 22.484375 14.003906 22.40625 C 14.03125 22.308594 14.089844 22.359375 14.1875 22.570312 C 14.320312 22.855469 14.441406 23.230469 14.484375 23.496094 C 14.535156 23.824219 14.503906 24.5 14.402344 25.136719 C 14.304688 25.734375 14.308594 25.765625 14.480469 25.878906 C 14.617188 25.972656 14.953125 26.070312 15.253906 26.109375 C 15.589844 26.148438 16.703125 26.148438 17.449219 26.105469 C 18.394531 26.054688 19.324219 26.058594 19.683594 26.117188 C 20.207031 26.203125 20.96875 26.402344 20.96875 26.453125 C 20.972656 26.492188 20.804688 26.542969 20.460938 26.605469 C 20.054688 26.675781 19.597656 26.707031 18.523438 26.742188 C 18.039062 26.757812 17.429688 26.785156 17.171875 26.796875 C 16.738281 26.824219 15.722656 26.828125 15.460938 26.808594 Z M 25.382812 26.121094 C 25.335938 26.097656 25.199219 26.011719 25.082031 25.925781 C 24.75 25.683594 23.679688 25.195312 23.132812 25.035156 C 22.199219 24.765625 20.242188 24.675781 18.785156 24.835938 C 17.335938 24.996094 16.253906 25.125 15.957031 25.171875 C 15.570312 25.234375 15.503906 25.238281 15.503906 25.191406 C 15.503906 25.148438 15.925781 24.867188 16.203125 24.730469 C 16.464844 24.597656 17.019531 24.414062 17.363281 24.339844 C 17.625 24.285156 18.519531 24.179688 19.160156 24.125 C 19.667969 24.078125 21.21875 24.085938 21.800781 24.136719 C 22.925781 24.230469 23.5 24.390625 24.683594 24.925781 C 24.886719 25.019531 25.054688 25.089844 25.0625 25.082031 C 25.070312 25.074219 25.054688 24.945312 25.03125 24.796875 C 24.933594 24.179688 24.957031 23.273438 25.09375 22.609375 C 25.117188 22.484375 25.128906 22.367188 25.121094 22.34375 C 25.109375 22.3125 25.058594 22.300781 24.917969 22.300781 C 24.492188 22.300781 23.46875 22.058594 22.894531 21.824219 C 22.460938 21.644531 21.40625 21.171875 21 20.976562 C 20.714844 20.839844 20.714844 20.839844 20.542969 20.863281 C 20.449219 20.878906 20.023438 20.890625 19.601562 20.890625 C 19.078125 20.886719 18.664062 20.902344 18.316406 20.933594 C 17.738281 20.984375 17.789062 20.976562 17.089844 21.105469 C 16.269531 21.25 16.175781 21.277344 15.773438 21.4375 C 15.316406 21.617188 15.0625 21.683594 14.75 21.710938 C 14.410156 21.738281 14.410156 21.699219 14.71875 21.367188 C 14.875 21.199219 15.265625 20.914062 15.441406 20.839844 C 15.492188 20.820312 15.53125 20.796875 15.53125 20.785156 C 15.53125 20.773438 15.46875 20.753906 15.390625 20.746094 C 15.144531 20.710938 14.835938 20.597656 14.574219 20.441406 C 14.191406 20.21875 13.863281 20.097656 13.3125 19.984375 C 12.867188 19.890625 12.386719 19.921875 12.386719 20.039062 C 12.386719 20.113281 12.554688 20.246094 12.722656 20.308594 C 12.800781 20.339844 12.992188 20.390625 13.144531 20.421875 C 13.710938 20.546875 14.390625 20.792969 14.367188 20.871094 C 14.351562 20.917969 14.234375 20.945312 13.917969 20.972656 C 13.394531 21.015625 12.824219 20.925781 12.429688 20.746094 C 11.957031 20.527344 11.734375 20.140625 11.886719 19.804688 C 11.949219 19.660156 12.066406 19.5625 12.269531 19.484375 C 12.410156 19.425781 12.46875 19.417969 12.828125 19.421875 C 13.257812 19.421875 13.484375 19.460938 14.027344 19.628906 C 14.40625 19.746094 14.667969 19.875 14.902344 20.0625 C 15.136719 20.25 15.558594 20.679688 15.558594 20.726562 C 15.558594 20.769531 15.582031 20.761719 15.917969 20.660156 C 16.101562 20.605469 17.027344 20.421875 17.589844 20.328125 C 17.835938 20.289062 18.617188 20.226562 19.097656 20.214844 C 19.5 20.199219 19.640625 20.1875 19.636719 20.164062 C 19.632812 20.144531 19.523438 20.039062 19.398438 19.929688 C 19.199219 19.753906 19.125 19.652344 19.191406 19.652344 C 19.203125 19.652344 19.605469 19.785156 20.082031 19.945312 C 21.011719 20.257812 21.210938 20.335938 22.414062 20.875 C 23.332031 21.285156 23.519531 21.351562 24.082031 21.484375 C 24.65625 21.617188 24.945312 21.648438 25.296875 21.628906 C 25.679688 21.605469 26.003906 21.53125 26.394531 21.375 C 26.820312 21.207031 26.988281 21.121094 27.1875 20.96875 C 27.617188 20.644531 28.355469 19.523438 28.5 18.96875 C 28.578125 18.683594 28.582031 18.171875 28.515625 17.914062 C 28.378906 17.40625 28.050781 16.945312 27.636719 16.683594 C 27.421875 16.546875 27.5625 16.523438 27.910156 16.632812 C 28.5 16.816406 28.992188 17.363281 29.164062 18.019531 C 29.238281 18.308594 29.242188 18.761719 29.175781 19.058594 C 29.085938 19.449219 28.863281 19.90625 28.488281 20.464844 C 28.121094 21.015625 27.785156 21.390625 27.453125 21.613281 C 26.980469 21.929688 25.890625 22.300781 25.425781 22.300781 C 25.363281 22.300781 25.316406 22.316406 25.308594 22.339844 C 25.300781 22.359375 25.316406 22.527344 25.347656 22.707031 C 25.378906 22.886719 25.429688 23.199219 25.460938 23.40625 C 25.492188 23.609375 25.601562 24.199219 25.699219 24.710938 C 25.847656 25.46875 25.878906 25.675781 25.863281 25.792969 C 25.84375 25.960938 25.769531 26.070312 25.636719 26.125 C 25.527344 26.171875 25.5 26.171875 25.382812 26.121094 Z M 12.070312 22.4375 C 11.964844 22.425781 11.804688 22.386719 11.710938 22.355469 C 11.3125 22.210938 10.636719 21.65625 10.378906 21.253906 C 10.140625 20.886719 9.925781 20.273438 9.800781 19.597656 C 9.761719 19.390625 9.753906 19.1875 9.753906 18.617188 C 9.753906 17.84375 9.777344 17.652344 9.945312 17.105469 C 10.035156 16.824219 10.316406 16.242188 10.523438 15.914062 C 11.125 14.960938 12.222656 13.828125 13.117188 13.242188 C 13.847656 12.757812 14.703125 12.453125 15.722656 12.304688 C 16.710938 12.160156 17.484375 12.171875 17.941406 12.332031 C 18.605469 12.570312 18.9375 12.847656 19.410156 13.5625 C 19.539062 13.757812 19.652344 13.914062 19.664062 13.914062 C 19.675781 13.914062 19.734375 13.804688 19.800781 13.671875 C 20.0625 13.128906 20.445312 12.859375 21.246094 12.648438 C 22.109375 12.417969 22.910156 12.394531 23.722656 12.566406 C 24.085938 12.644531 24.828125 12.894531 25.144531 13.042969 C 25.902344 13.402344 26.539062 13.886719 26.882812 14.367188 C 27.171875 14.773438 27.367188 15.347656 27.367188 15.796875 C 27.367188 16.097656 27.273438 16.542969 27.113281 17.003906 C 27.003906 17.308594 26.945312 17.421875 26.90625 17.382812 C 26.851562 17.328125 26.777344 16.769531 26.734375 16.078125 C 26.671875 15.101562 26.355469 14.574219 25.492188 14.007812 C 25.140625 13.78125 24.855469 13.636719 24.449219 13.488281 C 23.746094 13.230469 23.257812 13.132812 22.675781 13.132812 C 22.1875 13.136719 21.84375 13.1875 21.226562 13.347656 C 20.667969 13.496094 20.441406 13.601562 20.15625 13.84375 C 19.9375 14.03125 19.890625 14.09375 19.832031 14.292969 C 19.789062 14.4375 19.734375 14.445312 19.707031 14.3125 C 19.695312 14.234375 19.632812 14.164062 19.355469 13.921875 C 18.636719 13.285156 18.449219 13.160156 18.003906 13.015625 C 17.585938 12.878906 17.207031 12.847656 16.605469 12.890625 C 16.148438 12.921875 15.640625 12.992188 15.253906 13.074219 C 14.949219 13.136719 14.34375 13.347656 14.027344 13.5 C 13.285156 13.859375 12.441406 14.570312 11.679688 15.480469 C 11.234375 16.015625 10.894531 16.558594 10.679688 17.078125 C 10.164062 18.324219 10.410156 20.324219 11.183594 21.230469 C 11.398438 21.480469 11.726562 21.789062 11.875 21.875 C 12.207031 22.070312 12.59375 22.121094 13.039062 22.027344 C 13.460938 21.941406 13.816406 21.960938 13.523438 22.054688 C 13.46875 22.074219 13.3125 22.140625 13.183594 22.207031 C 12.746094 22.425781 12.472656 22.480469 12.070312 22.4375 Z M 17.347656 19.65625 C 17.277344 19.582031 17.140625 19.359375 17.039062 19.160156 C 16.652344 18.410156 16.140625 17.902344 15.625 17.761719 C 15.429688 17.707031 15.347656 17.71875 15.25 17.816406 C 15.101562 17.964844 15.132812 18.148438 15.355469 18.453125 C 15.792969 19.050781 15.871094 19.183594 15.773438 19.183594 C 15.753906 19.183594 15.636719 19.140625 15.515625 19.09375 C 15.121094 18.929688 14.859375 18.710938 14.726562 18.421875 C 14.472656 17.882812 14.789062 17.285156 15.371094 17.207031 C 15.4375 17.199219 15.566406 17.210938 15.671875 17.234375 C 16.199219 17.359375 16.683594 17.714844 17.121094 18.300781 C 17.359375 18.617188 17.453125 18.800781 17.503906 19.042969 C 17.554688 19.277344 17.558594 19.679688 17.507812 19.746094 C 17.476562 19.792969 17.460938 19.785156 17.347656 19.65625 Z M 17.347656 19.65625 " fill-opacity="1" fill-rule="nonzero"/></g></svg>